<svg xmlns="http://www.w3.org/2000/svg" viewBox="0 0 32 32" width="32" height="32">
  <!-- Background circle with gradient -->
  <defs>
    <linearGradient id="bgGradient" x1="0%" y1="0%" x2="100%" y2="100%">
      <stop offset="0%" style="stop-color:#4f46e5;stop-opacity:1" />
      <stop offset="100%" style="stop-color:#7c3aed;stop-opacity:1" />
    </linearGradient>
    <linearGradient id="heartGradient" x1="0%" y1="0%" x2="100%" y2="100%">
      <stop offset="0%" style="stop-color:#ef4444;stop-opacity:1" />
      <stop offset="100%" style="stop-color:#dc2626;stop-opacity:1" />
    </linearGradient>
  </defs>
  
  <!-- Background circle -->
  <circle cx="16" cy="16" r="15" fill="url(#bgGradient)" stroke="#ffffff" stroke-width="2"/>
  
  <!-- Heart shape with pulse line -->
  <path d="M16 26c-1.5-1.5-6-5.5-6-9.5 0-2.5 2-4.5 4.5-4.5 1.5 0 1.5 1 1.5 1s0-1 1.5-1c2.5 0 4.5 2 4.5 4.5 0 4-4.5 8-6 9.5z" 
        fill="url(#heartGradient)" stroke="#ffffff" stroke-width="0.5"/>
  
  <!-- Pulse line across the heart -->
  <path d="M8 16 L11 16 L12 13 L14 19 L15 10 L17 22 L18 13 L20 16 L24 16" 
        stroke="#ffffff" stroke-width="1.5" fill="none" stroke-linecap="round" stroke-linejoin="round"/>
  
  <!-- Small cross symbol in top right -->
  <g transform="translate(22, 6)">
    <path d="M0 -2 L0 2 M-2 0 L2 0" stroke="#ffffff" stroke-width="1.5" stroke-linecap="round"/>
  </g>
</svg>